<?xml version="1.0" encoding="utf-8"?>
<!-- Generator: Adobe Illustrator 23.0.3, SVG Export Plug-In . SVG Version: 6.00 Build 0)  -->
<svg version="1.1" id="Layer_1" xmlns="http://www.w3.org/2000/svg" xmlns:xlink="http://www.w3.org/1999/xlink" x="0px" y="0px"
	 viewBox="0 0 72 20" style="enable-background:new 0 0 72 20;" xml:space="preserve">
<style type="text/css">
	.st0{fill:#30AF5B;}
	.st1{fill:none;stroke:#000000;stroke-linecap:round;stroke-linejoin:round;}
</style>
<g>
	<path class="st0" d="M1,16.4V3.6h2l8,9.9h-1V3.6h2.3v12.8h-2l-8-9.9h1v9.9H1z"/>
	<path class="st0" d="M21.9,16.6c-1,0-1.9-0.2-2.8-0.5c-0.8-0.3-1.6-0.8-2.2-1.4c-0.6-0.6-1.1-1.3-1.4-2.1C15.1,11.8,15,10.9,15,10
		c0-1,0.2-1.8,0.5-2.6c0.3-0.8,0.8-1.5,1.4-2.1c0.6-0.6,1.4-1.1,2.2-1.4c0.8-0.3,1.8-0.5,2.8-0.5c1,0,1.9,0.2,2.7,0.5
		s1.6,0.8,2.2,1.4c0.6,0.6,1.1,1.3,1.4,2.1c0.3,0.8,0.5,1.7,0.5,2.6s-0.2,1.8-0.5,2.6c-0.3,0.8-0.8,1.5-1.4,2.1
		c-0.6,0.6-1.3,1.1-2.2,1.4C23.8,16.4,22.9,16.6,21.9,16.6z M21.9,14.5c0.6,0,1.2-0.1,1.8-0.3c0.5-0.2,1-0.5,1.4-0.9
		c0.4-0.4,0.7-0.9,0.9-1.4c0.2-0.5,0.3-1.2,0.3-1.8S26.2,8.7,26,8.2c-0.2-0.5-0.5-1-0.9-1.4c-0.4-0.4-0.9-0.7-1.4-0.9
		c-0.5-0.2-1.1-0.3-1.8-0.3c-0.6,0-1.2,0.1-1.8,0.3c-0.6,0.2-1,0.5-1.4,0.9c-0.4,0.4-0.7,0.9-1,1.4c-0.2,0.5-0.3,1.1-0.3,1.8
		c0,0.6,0.1,1.2,0.3,1.8c0.2,0.5,0.5,1,1,1.4c0.4,0.4,0.9,0.7,1.4,0.9C20.6,14.4,21.2,14.5,21.9,14.5z"/>
	<path class="st1" d="M31.3,16.4V3.6h2l5.6,9.4h-1l5.5-9.4h2l0,12.8H43V7.1h0.5L38.8,15h-1.1L33,7.1h0.5v9.3H31.3z"/>
	<path class="st0" d="M46.9,16.4l5.8-12.8h2.3l5.8,12.8h-2.5L53.4,4.9h1l-5,11.5H46.9z"/>
	<path class="st0" d="M58.4,16.4V3.6H64c1.4,0,2.6,0.3,3.6,0.8s1.9,1.3,2.5,2.2c0.6,1,0.9,2.1,0.9,3.4s-0.3,2.4-0.9,3.4
		c-0.6,1-1.4,1.7-2.5,2.2s-2.3,0.8-3.6,0.8H58.4z M60.7,14.4h3.1c1,0,1.8-0.2,2.5-0.5c0.7-0.4,1.3-0.9,1.6-1.5
		c0.4-0.7,0.6-1.4,0.6-2.3c0-0.9-0.2-1.7-0.6-2.3C67.6,7,67,6.5,66.3,6.2c-0.7-0.4-1.5-0.5-2.5-0.5h-3.1V14.4z"/>
</g>
</svg>
