<?xml version="1.0" encoding="utf-8"?>
<!-- Generator: Adobe Illustrator 23.0.3, SVG Export Plug-In . SVG Version: 6.00 Build 0)  -->
<svg version="1.1" id="Layer_1" xmlns="http://www.w3.org/2000/svg" xmlns:xlink="http://www.w3.org/1999/xlink" x="0px" y="0px"
	 viewBox="0 0 22 22" style="enable-background:new 0 0 22 22;" xml:space="preserve">
<g>
	<path d="M17.4,16.9l-4.8-7L12,9.1l-3.4-5L8.3,3.6H4.1l1,1.5l4.6,6.7l0.5,0.8l3.7,5.4l0.3,0.4h4.2L17.4,16.9z M14.7,17.4l-3.8-5.6
		l-0.5-0.8L5.9,4.6h1.9l3.6,5.2l0.5,0.8l4.7,6.8H14.7z"/>
	<polygon points="10.3,11.1 10.9,11.8 10.2,12.6 5.3,18.4 4.1,18.4 9.7,11.8 	"/>
	<polygon points="17.9,3.6 12.6,9.9 11.9,10.6 11.4,9.8 12,9.1 15.7,4.9 16.7,3.6 	"/>
</g>
</svg>
