<?xml version="1.0" encoding="utf-8"?>
<!-- Generator: Adobe Illustrator 23.0.3, SVG Export Plug-In . SVG Version: 6.00 Build 0)  -->
<svg version="1.1" id="Layer_1" xmlns="http://www.w3.org/2000/svg" xmlns:xlink="http://www.w3.org/1999/xlink" x="0px" y="0px"
	 viewBox="0 0 24 22" style="enable-background:new 0 0 24 22;" xml:space="preserve">
<path d="M19.3,7C19.3,7,19.3,7,19.3,7C19,7,18.8,6.9,18.7,6.9c-0.7-0.1-3-1.3-3.3-3.2c0,0-0.1-0.5-0.1-0.7c0-0.1,0-0.1-0.1-0.1
	c0,0,0,0-0.1,0c-0.9,0-1.8,0-2.7,0c-0.2,0-0.2,0-0.2,0.2c0,3.8,0,7.7,0,11.5c0,0.1,0,0.3,0,0.4c-0.1,0.7-0.5,1.3-1.2,1.7
	c-0.6,0.3-1.2,0.4-1.8,0.3c-0.2,0-0.4-0.1-0.6-0.2c0,0,0,0,0,0c-0.1-0.1-0.1-0.1-0.2-0.1c-0.8-0.6-1.2-1.4-1.1-2.3
	c0.1-1,0.7-1.7,1.6-2c0.3-0.1,0.6-0.1,0.9-0.1c0.2,0,0.4,0,0.6,0.1c0.1,0,0.1,0,0.1-0.1c0,0,0,0,0-0.1c0-0.7,0-2.2,0-2.2
	c0-0.2,0-0.4,0-0.6c0-0.1,0-0.1-0.1-0.1c-0.4,0-0.7-0.1-1.1,0c-0.5,0-1,0.1-1.4,0.3c-0.7,0.3-1.4,0.7-2,1.2c-0.5,0.5-0.9,1-1.1,1.6
	c-0.3,0.6-0.4,1.2-0.5,1.9c0,0.3,0,0.6,0,0.8c0,0.4,0.1,0.8,0.2,1.1c0.3,1.1,1,2,1.8,2.6C6.5,19,6.6,19,6.7,19.1c0,0,0,0,0,0
	c0,0,0.1,0.1,0.1,0.1c0.1,0.1,0.3,0.2,0.5,0.3c1,0.5,2,0.7,3.1,0.6c1.4-0.2,2.6-0.8,3.5-1.9c0.9-1,1.3-2.2,1.3-3.6
	c0-1.9,0-3.8,0-5.7c0,0,0-0.1,0-0.1c0,0,0.1,0,0.1,0.1c0.7,0.5,1.5,0.8,2.3,1c0.5,0.1,1,0.2,1.5,0.2c0.2,0,0.2,0,0.2-0.2
	C19.4,9.1,19.3,7.2,19.3,7z"/>
</svg>
